<?xml version="1.0" encoding="utf-8"?>
<!-- Generator: Adobe Illustrator 18.1.1, SVG Export Plug-In . SVG Version: 6.00 Build 0)  -->
<!DOCTYPE svg PUBLIC "-//W3C//DTD SVG 1.1//EN" "http://www.w3.org/Graphics/SVG/1.1/DTD/svg11.dtd">
<svg version="1.1" id="Layer_1" xmlns="http://www.w3.org/2000/svg" xmlns:xlink="http://www.w3.org/1999/xlink" x="0px" y="0px"
	 viewBox="0 0 200 200" style="enable-background:new 0 0 200 200;" xml:space="preserve">
<style type="text/css">
	.st0{fill:#BB9D6E;}
</style>
<g id="Your_Icon_2_">
	<path class="st0" d="M53.6,166.2c1.6,0.1,3.1-1,3.4-2.5c-0.1,1.7,1.1,3.3,2.9,3.4c1.7,0.2,3.3-1.1,3.4-2.9c0.2-1.9,0.6-6.6,0.8-8.3
		c0,0,0.1,0,0.1,0c11.2,0.9,23.9-7.4,26.4-25.2c1.1-7.7-0.9-15.3-5.6-21.6c-3.2-4.2-7.3-7.4-12.1-9.4c0.3-0.7,0.6-1.4,0.7-2.2
		c0.3-2-0.2-4.1-1.5-5.7c-1.2-1.6-3-2.7-5.1-3c-3.8-0.5-7.4,1.8-8.5,5.5c-0.1,0.3-0.2,0.7-0.2,1c-0.1,0.8-0.1,1.6,0.1,2.4
		c-0.8,0.1-1.6,0.2-2.5,0.4l-2-5.5c2-1.4,3.6-3.5,4.3-6c0.3-1.2,0.5-2.5,0.4-3.7l-0.9-13.9c-0.1-1.3-0.4-2.5-0.9-3.7l7.5-6.1
		c0.2,0.1,0.3,0.2,0.5,0.3c2.6,1.3,5.6,1.5,8.4,0.5l13.2-4.5c3.4-1.2,6.1-3.9,7.1-7.4c0,0,0,0,0-0.1l6.6-0.1c1.1,2.7,3.2,4.9,6,6.1
		l12.9,5.3c2.7,1.1,5.6,1.1,8.3,0l2.9,3.7c-0.6,0.9-1.1,1.9-1.4,3c-0.4,1.5-0.5,3-0.3,4.5l1.9,13.8c0.6,4.1,3.4,7.4,7,8.8l-0.2,4.6
		c-9.7,0.3-19,5.4-24.3,14.4c-1.7,2.9-2.8,5.7-3.6,8.4c-3.5,12.1,1.2,22.7,8.8,27.8c0,0,0.1,0.1,0.1,0.1c-0.9,1.5-3.4,5.5-4.4,7.1
		c-0.9,1.5-0.5,3.4,1,4.4c1.5,0.9,3.4,0.5,4.4-1l0,0c-0.1,0.2-0.2,0.4-0.3,0.6c-0.4,1.3,0.1,2.8,1.3,3.5c1.5,0.9,3.4,0.5,4.4-1
		c0.4-0.6,3.5-5.5,4.6-7.3c0,0,0.1,0,0.1,0c10.1,5.1,25,2.1,34-13.4c6.8-11.7,4.5-26.2-4.7-35.3c0.6-0.5,1.1-1.1,1.5-1.8
		c0.3-0.6,0.6-1.1,0.7-1.8c1-3.4-0.5-7-3.5-8.7c-3.7-2.1-8.4-0.9-10.5,2.8c-0.3,0.6-0.6,1.1-0.7,1.8c0,0.2-0.1,0.3-0.1,0.5
		c-0.8-0.2-1.6-0.4-2.4-0.6l0.2-4.6c3.9-0.9,7.1-3.8,8.2-7.7c0.4-1.5,0.5-3,0.3-4.5l-1.9-13.8c-0.8-6-6.4-10.2-12.4-9.4
		c-1,0.1-2,0.4-2.9,0.8l-2.8-3.6c0.5-0.7,0.8-1.3,1.1-2.1c2.3-5.7-0.4-12.1-6-14.4l-12.9-5.3c-2.7-1.1-5.7-1.1-8.4,0
		c-2.7,1.1-4.8,3.3-6,6c-0.2,0.4-0.3,0.8-0.4,1.2c-0.1,0.3-0.1,0.5-0.2,0.8l-6.1,0.1c0-0.1,0-0.1-0.1-0.2c-0.9-2.8-2.9-5-5.6-6.3
		c-2.6-1.3-5.6-1.5-8.4-0.5l-13.2,4.5c-3.4,1.2-6.1,3.9-7.1,7.4c-0.6,2.2-0.6,4.4,0.2,6.6c0.2,0.5,0.4,1,0.6,1.5l-7.2,5.9
		c-2-1.3-4.3-1.9-6.7-1.8c-4.6,0.3-8.6,3.5-9.9,8c-0.3,1.2-0.5,2.5-0.4,3.7l0.9,13.9c0.4,5.9,5.4,10.5,11.3,10.3l2,5.4
		c-7.7,3.4-13.8,10.1-16.2,18.6c-0.4,1.3-0.6,2.6-0.8,3.9c-2.5,17.8,7.4,29.3,18.4,31.6c0.1,0,0.1,0,0.1,0c-0.2,2.1-0.8,7.9-0.8,8.6
		C50.6,164.5,51.9,166.1,53.6,166.2z M158,138.4c-5.3,9.2-15.9,15.9-25.7,11c-3-1.5-6.5-0.7-8.1,1.9c1.5-2.7,0.4-6.2-2.4-8
		c-9.2-6.1-8.6-18.5-3.2-27.7c6.3-10.9,20.3-14.6,31.1-8.3C160.6,113.5,164.3,127.5,158,138.4z M152.4,99.9c0.4-0.7,1.2-0.9,1.9-0.5
		c0.5,0.3,0.8,1,0.6,1.6c0,0.1-0.1,0.2-0.1,0.3c-0.4,0.7-1.2,0.9-1.9,0.5c0,0,0,0,0,0c0,0,0,0,0,0C152.2,101.4,152,100.5,152.4,99.9
		z M144.2,68.5l1.9,13.8c0.1,0.7,0,1.3-0.1,1.9c-0.3,1.1-1,2-1.9,2.6l0.2-4.5c0.1-1.7-1.3-3.2-3-3.3c-1.5-0.1-2.8,0.9-3.1,2.3
		c-0.1,0.2-0.1,0.5-0.1,0.8l-0.1,3.8c-0.5-0.6-0.9-1.4-1-2.3l-1.9-13.8c0-0.3-0.1-0.7,0-1l2.2,2.8c1.1,1.4,3.1,1.6,4.4,0.5
		c1.4-1.1,1.6-3.1,0.5-4.4l-2.5-3.2C141.8,64.4,143.9,66.1,144.2,68.5z M108.6,39.5c1.2-0.5,2.4-0.5,3.6,0l12.9,5.3
		c2,0.8,3.2,2.9,2.9,5.1l-1.5-1.9c-1.1-1.4-3.1-1.6-4.4-0.5c-0.5,0.4-0.9,1-1.1,1.6c-0.3,0.9-0.1,2,0.6,2.8l1.6,2
		c-0.5,0-1-0.1-1.5-0.3l-12.9-5.3c-0.3-0.1-0.5-0.3-0.8-0.4l2.4,0c1.7,0,3.1-1.5,3.1-3.2c0-1.7-1.5-3.1-3.2-3.1l-3.7,0.1
		C106.8,40.7,107.6,39.9,108.6,39.5z M68.3,45.2l13.2-4.5c1.2-0.4,2.5-0.3,3.6,0.2c0.5,0.3,1,0.6,1.4,1L84,42c-1.4,0-2.6,1-3,2.3
		c-0.1,0.3-0.1,0.6-0.1,0.9c0,1.7,1.5,3.1,3.2,3.1l2.4,0c-0.5,0.6-1.2,1.1-2,1.4l-13.2,4.5c-0.3,0.1-0.6,0.2-0.9,0.2l2.3-1.9
		c1.3-1.1,1.5-3.1,0.4-4.4c-1.1-1.3-3.1-1.5-4.4-0.4l-3.5,2.9C64.8,48.2,66.1,45.9,68.3,45.2z M43.1,84.1l-0.9-13.9
		c-0.2-2.6,1.9-4.9,4.4-5c0.3,0,0.5,0,0.8,0l-2.1,1.7c-0.5,0.4-0.9,1-1,1.6c-0.3,1-0.1,2,0.6,2.9c1.1,1.3,3.1,1.5,4.4,0.4l2.4-1.9
		l0.9,13.6c0,0.5,0,1.1-0.2,1.6c-0.1,0.5-0.3,0.9-0.6,1.3l-1.1-3.1c-0.6-1.6-2.4-2.5-4-1.9c-1,0.4-1.7,1.2-1.9,2.1
		c-0.2,0.6-0.2,1.3,0.1,1.9l0.9,2.5C44.2,87.2,43.2,85.8,43.1,84.1z M65,97.4c-0.1-0.2-0.3-0.5-0.3-1c0.1-0.8,0.8-1.3,1.5-1.2
		c0.5,0.1,0.8,0.4,0.9,0.5c0.1,0.2,0.3,0.5,0.3,1c0,0.1,0,0.1,0,0.2c-0.2,0.6-0.8,1.1-1.5,1l0,0c0,0,0,0,0,0
		C65.4,97.8,65.1,97.5,65,97.4z M39.3,123.5c1.8-12.4,13.3-21.1,25.7-19.4c6,0.9,11.4,4,15,8.9c3.7,4.9,5.2,10.9,4.4,16.9
		c-2,13.9-11.4,20.5-19.7,19.8c-3.3-0.3-6.3,1.8-6.8,4.8c0.3-3-1.9-5.9-5.2-6.5C41.9,145.8,37.8,134,39.3,123.5z"/>
</g>
<g>
</g>
<g>
</g>
<g>
</g>
<g>
</g>
<g>
</g>
<g>
</g>
</svg>
