<svg xmlns="http://www.w3.org/2000/svg" viewBox="0 0 200 200" enable-background="new 0 0 200 200"><style type="text/css">.st0{fill:#BB9D6E;}</style><path class="st0" d="M53.6 166.2c1.6.1 3.1-1 3.4-2.5-.1 1.7 1.1 3.3 2.9 3.4 1.7.2 3.3-1.1 3.4-2.9.2-1.9.6-6.6.8-8.3h.1c11.2.9 23.9-7.4 26.4-25.2 1.1-7.7-.9-15.3-5.6-21.6-3.2-4.2-7.3-7.4-12.1-9.4.3-.7.6-1.4.7-2.2.3-2-.2-4.1-1.5-5.7-1.2-1.6-3-2.7-5.1-3-3.8-.5-7.4 1.8-8.5 5.5-.1.3-.2.7-.2 1-.1.8-.1 1.6.1 2.4-.8.1-1.6.2-2.5.4l-2-5.5c2-1.4 3.6-3.5 4.3-6 .3-1.2.5-2.5.4-3.7l-.9-13.9c-.1-1.3-.4-2.5-.9-3.7l7.5-6.1.5.3c2.6 1.3 5.6 1.5 8.4.5l13.2-4.5c3.4-1.2 6.1-3.9 7.1-7.4v-.1l6.6-.1c1.1 2.7 3.2 4.9 6 6.1l12.9 5.3c2.7 1.1 5.6 1.1 8.3 0l2.9 3.7c-.6.9-1.1 1.9-1.4 3-.4 1.5-.5 3-.3 4.5l1.9 13.8c.6 4.1 3.4 7.4 7 8.8l-.2 4.6c-9.7.3-19 5.4-24.3 14.4-1.7 2.9-2.8 5.7-3.6 8.4-3.5 12.1 1.2 22.7 8.8 27.8l.1.1c-.9 1.5-3.4 5.5-4.4 7.1-.9 1.5-.5 3.4 1 4.4 1.5.9 3.4.5 4.4-1l-.3.6c-.4 1.3.1 2.8 1.3 3.5 1.5.9 3.4.5 4.4-1 .4-.6 3.5-5.5 4.6-7.3h.1c10.1 5.1 25 2.1 34-13.4 6.8-11.7 4.5-26.2-4.7-35.3.6-.5 1.1-1.1 1.5-1.8.3-.6.6-1.1.7-1.8 1-3.4-.5-7-3.5-8.7-3.7-2.1-8.4-.9-10.5 2.8-.3.6-.6 1.1-.7 1.8l-.1.5-2.4-.6.2-4.6c3.9-.9 7.1-3.8 8.2-7.7.4-1.5.5-3 .3-4.5l-1.9-13.8c-.8-6-6.4-10.2-12.4-9.4-1 .1-2 .4-2.9.8l-2.8-3.6c.5-.7.8-1.3 1.1-2.1 2.3-5.7-.4-12.1-6-14.4l-12.9-5.3c-2.7-1.1-5.7-1.1-8.4 0s-4.8 3.3-6 6c-.2.4-.3.8-.4 1.2l-.2.8-6.1.1c0-.1 0-.1-.1-.2-.9-2.8-2.9-5-5.6-6.3-2.6-1.3-5.6-1.5-8.4-.5l-13.2 4.5c-3.4 1.2-6.1 3.9-7.1 7.4-.6 2.2-.6 4.4.2 6.6l.6 1.5-7.2 5.9c-2-1.3-4.3-1.9-6.7-1.8-4.6.3-8.6 3.5-9.9 8-.3 1.2-.5 2.5-.4 3.7l.9 13.9c.4 5.9 5.4 10.5 11.3 10.3l2 5.4c-7.7 3.4-13.8 10.1-16.2 18.6-.4 1.3-.6 2.6-.8 3.9-2.5 17.8 7.4 29.3 18.4 31.6h.1c-.2 2.1-.8 7.9-.8 8.6.1 1.7 1.4 3.3 3.1 3.4zm104.4-27.8c-5.3 9.2-15.9 15.9-25.7 11-3-1.5-6.5-.7-8.1 1.9 1.5-2.7.4-6.2-2.4-8-9.2-6.1-8.6-18.5-3.2-27.7 6.3-10.9 20.3-14.6 31.1-8.3 10.9 6.2 14.6 20.2 8.3 31.1zm-5.6-38.5c.4-.7 1.2-.9 1.9-.5.5.3.8 1 .6 1.6l-.1.3c-.4.7-1.2.9-1.9.5s-.9-1.3-.5-1.9zm-8.2-31.4l1.9 13.8c.1.7 0 1.3-.1 1.9-.3 1.1-1 2-1.9 2.6l.2-4.5c.1-1.7-1.3-3.2-3-3.3-1.5-.1-2.8.9-3.1 2.3-.1.2-.1.5-.1.8l-.1 3.8c-.5-.6-.9-1.4-1-2.3l-1.9-13.8c0-.3-.1-.7 0-1l2.2 2.8c1.1 1.4 3.1 1.6 4.4.5 1.4-1.1 1.6-3.1.5-4.4l-2.5-3.2c2.1-.1 4.2 1.6 4.5 4zm-35.6-29c1.2-.5 2.4-.5 3.6 0l12.9 5.3c2 .8 3.2 2.9 2.9 5.1l-1.5-1.9c-1.1-1.4-3.1-1.6-4.4-.5-.5.4-.9 1-1.1 1.6-.3.9-.1 2 .6 2.8l1.6 2c-.5 0-1-.1-1.5-.3l-12.9-5.3-.8-.4h2.4c1.7 0 3.1-1.5 3.1-3.2 0-1.7-1.5-3.1-3.2-3.1l-3.7.1c.2-1 1-1.8 2-2.2zm-40.3 5.7l13.2-4.5c1.2-.4 2.5-.3 3.6.2.5.3 1 .6 1.4 1l-2.5.1c-1.4 0-2.6 1-3 2.3-.1.3-.1.6-.1.9 0 1.7 1.5 3.1 3.2 3.1h2.4c-.5.6-1.2 1.1-2 1.4l-13.2 4.5c-.3.1-.6.2-.9.2l2.3-1.9c1.3-1.1 1.5-3.1.4-4.4-1.1-1.3-3.1-1.5-4.4-.4l-3.5 2.9c-.4-2.4.9-4.7 3.1-5.4zm-25.2 38.9l-.9-13.9c-.2-2.6 1.9-4.9 4.4-5h.8l-2.1 1.7c-.5.4-.9 1-1 1.6-.3 1-.1 2 .6 2.9 1.1 1.3 3.1 1.5 4.4.4l2.4-1.9.9 13.6c0 .5 0 1.1-.2 1.6-.1.5-.3.9-.6 1.3l-1.1-3.1c-.6-1.6-2.4-2.5-4-1.9-1 .4-1.7 1.2-1.9 2.1-.2.6-.2 1.3.1 1.9l.9 2.5c-1.6-.7-2.6-2.1-2.7-3.8zm21.9 13.3c-.1-.2-.3-.5-.3-1 .1-.8.8-1.3 1.5-1.2.5.1.8.4.9.5.1.2.3.5.3 1v.2c-.2.6-.8 1.1-1.5 1-.5-.1-.8-.4-.9-.5zm-25.7 26.1c1.8-12.4 13.3-21.1 25.7-19.4 6 .9 11.4 4 15 8.9 3.7 4.9 5.2 10.9 4.4 16.9-2 13.9-11.4 20.5-19.7 19.8-3.3-.3-6.3 1.8-6.8 4.8.3-3-1.9-5.9-5.2-6.5-10.8-2.2-14.9-14-13.4-24.5z" id="Your_Icon_2_"/></svg>