<svg xmlns="http://www.w3.org/2000/svg" viewBox="0 0 200 200" enable-background="new 0 0 200 200"><style type="text/css">.st0{fill:#BB9D6E;}</style><path class="st0" d="M145.2 107.9c8.4-2.5 17.2-6 25.6-10.5 13.5-7.8 20.3.3 15.3 12.6-4.3 11.6-26.9 33.3-46.6 38.2-7.6-5.3-22.4-9-39.5-9.1-17.1.1-32 3.7-39.5 9.1-19.7-4.9-42.4-26.6-46.6-38.2-5-12.3 1.9-20.4 15.3-12.6 8.4 4.6 17.1 8 25.5 10.6 18.1 5.4 34.6 6.8 43.3 6.8h4.8c8.7-.2 24.9-1.7 42.4-6.9z"/><path class="st0" d="M120.9 53.1c7 3.5 18.5 36.6 22.9 50.2-17 4.9-32.5 6.3-40.9 6.4h-4.8c-8.5 0-24.4-1.3-41.9-6.4 4.4-13.6 15.9-46.7 22.9-50.2 8.1-4 15 2.6 20.6 3.3h-1.1c.4.1.9.1 1.4 0h1.4-1.1c5.6-.6 12.5-7.3 20.6-3.3zm-2.8 25.7c0-1.5-1.2-2.7-2.7-2.7-1.4 0-2.5 1-2.6 2.3l-8.2-1.2-3.6-7.2c1-.4 1.7-1.3 1.7-2.5 0-1.5-1.2-2.7-2.7-2.7s-2.7 1.2-2.7 2.7c0 1.1.7 2.1 1.7 2.5l-3.6 7.3-8.2 1.2c-.2-1.3-1.3-2.3-2.6-2.3-1.5 0-2.7 1.2-2.7 2.7 0 1.5 1.2 2.7 2.7 2.7.9 0 1.7-.4 2.2-1.1l5.8 5.7-1.5 8.5c-.3-.1-.7-.2-1.1-.2-1.5 0-2.7 1.2-2.7 2.7 0 1.5 1.2 2.7 2.7 2.7 1.5 0 2.7-1.2 2.7-2.7 0-.6-.2-1.1-.5-1.5l7.8-4.1 7.7 4.1c-.3.4-.5.9-.5 1.5 0 1.5 1.2 2.7 2.7 2.7 1.5 0 2.7-1.2 2.7-2.7s-1.2-2.7-2.7-2.7c-.4 0-.7.1-1 .2l-1.5-8.5 5.8-5.7c.5.7 1.3 1.1 2.2 1.1 1.5-.1 2.7-1.3 2.7-2.8z" id="XMLID_1_"/></svg>