<?xml version="1.0" encoding="utf-8"?>
<!-- Generator: Adobe Illustrator 18.1.1, SVG Export Plug-In . SVG Version: 6.00 Build 0)  -->
<!DOCTYPE svg PUBLIC "-//W3C//DTD SVG 1.1//EN" "http://www.w3.org/Graphics/SVG/1.1/DTD/svg11.dtd">
<svg version="1.1" id="Layer_1" xmlns="http://www.w3.org/2000/svg" xmlns:xlink="http://www.w3.org/1999/xlink" x="0px" y="0px"
	 viewBox="0 0 200 200" style="enable-background:new 0 0 200 200;" xml:space="preserve">
<style type="text/css">
	.st0{fill:#BB9D6E;}
</style>
<g>
	<path class="st0" d="M145.2,107.9C145.2,107.9,145.3,107.8,145.2,107.9c8.4-2.5,17.2-6,25.6-10.5c13.5-7.8,20.3,0.3,15.3,12.6
		c-4.3,11.6-26.9,33.3-46.6,38.2c-7.6-5.3-22.4-9-39.5-9.1c-17.1,0.1-32,3.7-39.5,9.1c-19.7-4.9-42.4-26.6-46.6-38.2
		c-5-12.3,1.9-20.4,15.3-12.6c8.4,4.6,17.1,8,25.5,10.6c18.1,5.4,34.6,6.8,43.3,6.8l4.8,0C111.5,114.6,127.7,113.1,145.2,107.9z"/>
	<g id="XMLID_1_">
		<path class="st0" d="M120.9,53.1c7,3.5,18.5,36.6,22.9,50.2c-17,4.9-32.5,6.3-40.9,6.4l-4.8,0c-8.5,0-24.4-1.3-41.9-6.4
			c4.4-13.6,15.9-46.7,22.9-50.2c8.1-4,15,2.6,20.6,3.3h-1.1c0.4,0.1,0.9,0.1,1.4,0c0.5,0,0.9,0,1.4,0h-1.1
			C105.9,55.8,112.8,49.1,120.9,53.1z M118.1,78.8c0-1.5-1.2-2.7-2.7-2.7c-1.4,0-2.5,1-2.6,2.3l-8.2-1.2L101,70
			c1-0.4,1.7-1.3,1.7-2.5c0-1.5-1.2-2.7-2.7-2.7s-2.7,1.2-2.7,2.7c0,1.1,0.7,2.1,1.7,2.5l-3.6,7.3l-8.2,1.2
			c-0.2-1.3-1.3-2.3-2.6-2.3c-1.5,0-2.7,1.2-2.7,2.7c0,1.5,1.2,2.7,2.7,2.7c0.9,0,1.7-0.4,2.2-1.1l5.8,5.7l-1.5,8.5
			c-0.3-0.1-0.7-0.2-1.1-0.2c-1.5,0-2.7,1.2-2.7,2.7c0,1.5,1.2,2.7,2.7,2.7c1.5,0,2.7-1.2,2.7-2.7c0-0.6-0.2-1.1-0.5-1.5l7.8-4.1
			l7.7,4.1c-0.3,0.4-0.5,0.9-0.5,1.5c0,1.5,1.2,2.7,2.7,2.7c1.5,0,2.7-1.2,2.7-2.7s-1.2-2.7-2.7-2.7c-0.4,0-0.7,0.1-1,0.2l-1.5-8.5
			l5.8-5.7c0.5,0.7,1.3,1.1,2.2,1.1C116.9,81.5,118.1,80.3,118.1,78.8z"/>
	</g>
</g>
<g>
</g>
<g>
</g>
<g>
</g>
<g>
</g>
<g>
</g>
<g>
</g>
</svg>
