<svg xmlns="http://www.w3.org/2000/svg" viewBox="0 0 70 70" enable-background="new 0 0 70 70"><style type="text/css">.st0{fill:#87724F;}</style><path class="st0" d="M49.2 41.9c-.3 0-.5.1-.7.2l-4.2-7.1 4.2-7.1c.2.1.4.2.7.2.7 0 1.3-.6 1.3-1.3 0-.7-.6-1.3-1.3-1.3-.7 0-1.3.6-1.3 1.3l-8.2.1-4-7.2c.4-.2.7-.7.7-1.2 0-.7-.6-1.3-1.3-1.3-.7 0-1.3.6-1.3 1.3 0 .5.3.9.7 1.2l-4 7.2-8.5-.1c0-.7-.6-1.3-1.3-1.3-.7 0-1.3.6-1.3 1.3 0 .7.6 1.3 1.3 1.3.2 0 .5-.1.7-.2l4.2 7.1-4.2 7.1c-.2-.1-.4-.2-.7-.2-.7 0-1.3.6-1.3 1.3 0 .7.6 1.3 1.3 1.3.7 0 1.3-.6 1.3-1.3l8.2-.1 4 7.2c-.4.2-.7.7-.7 1.2 0 .7.6 1.3 1.3 1.3.7 0 1.3-.6 1.3-1.3 0-.5-.3-.9-.7-1.2l4-7.2 8.2.1c0 .7.6 1.3 1.3 1.3.7 0 1.3-.6 1.3-1.3.4-.7-.2-1.3-1-1.3z" id="Your_Icon_8_"/></svg>